<svg width="1600" height="1000" viewBox="0 0 1600 1000" fill="none" xmlns="http://www.w3.org/2000/svg">
  <defs>
    <linearGradient id="bg" x1="160" y1="90" x2="1420" y2="920" gradientUnits="userSpaceOnUse">
      <stop stop-color="#15130F"/>
      <stop offset="1" stop-color="#040404"/>
    </linearGradient>
    <linearGradient id="beam" x1="800" y1="810" x2="800" y2="170" gradientUnits="userSpaceOnUse">
      <stop stop-color="#E0D7C0" stop-opacity="0"/>
      <stop offset="0.48" stop-color="#F2EAD5" stop-opacity="0.9"/>
      <stop offset="1" stop-color="#E0D7C0" stop-opacity="0"/>
    </linearGradient>
    <filter id="glow" x="-20%" y="-20%" width="140%" height="140%">
      <feGaussianBlur stdDeviation="22"/>
    </filter>
  </defs>
  <rect width="1600" height="1000" fill="url(#bg)"/>
  <g opacity="0.24" stroke="#5A5448">
    <path d="M120 832H1480"/>
    <path d="M120 742H1480"/>
    <path d="M120 652H1480"/>
    <path d="M120 562H1480"/>
    <path d="M120 472H1480"/>
  </g>
  <path d="M800 812L800 166" stroke="url(#beam)" stroke-width="64" stroke-linecap="round" filter="url(#glow)"/>
  <path d="M800 812L800 166" stroke="#E1E0CC" stroke-width="4" stroke-linecap="round"/>
  <path d="M756 232L800 166L844 232" stroke="#E1E0CC" stroke-width="4" stroke-linecap="round" stroke-linejoin="round"/>
  <g fill="#111111" stroke="#E1E0CC" stroke-width="2">
    <rect x="498" y="748" width="188" height="64" rx="18"/>
    <rect x="640" y="658" width="188" height="64" rx="18"/>
    <rect x="782" y="568" width="188" height="64" rx="18"/>
    <rect x="924" y="478" width="188" height="64" rx="18"/>
  </g>
  <g fill="#DEDBC8">
    <rect x="540" y="774" width="104" height="12" rx="6"/>
    <rect x="682" y="684" width="104" height="12" rx="6"/>
    <rect x="824" y="594" width="104" height="12" rx="6"/>
    <rect x="966" y="504" width="104" height="12" rx="6"/>
  </g>
</svg>
