<svg width="1600" height="1000" viewBox="0 0 1600 1000" fill="none" xmlns="http://www.w3.org/2000/svg">
  <defs>
    <linearGradient id="bg" x1="142" y1="88" x2="1434" y2="910" gradientUnits="userSpaceOnUse">
      <stop stop-color="#14120F"/>
      <stop offset="1" stop-color="#040404"/>
    </linearGradient>
    <radialGradient id="glow" cx="0" cy="0" r="1" gradientUnits="userSpaceOnUse" gradientTransform="translate(1146 286) rotate(90) scale(260 260)">
      <stop stop-color="#EDE5CF" stop-opacity="0.85"/>
      <stop offset="1" stop-color="#EDE5CF" stop-opacity="0"/>
    </radialGradient>
  </defs>
  <rect width="1600" height="1000" fill="url(#bg)"/>
  <circle cx="1146" cy="286" r="240" fill="url(#glow)"/>
  <g opacity="0.2" stroke="#5B5549">
    <path d="M128 200H1482"/>
    <path d="M128 360H1482"/>
    <path d="M128 520H1482"/>
    <path d="M128 680H1482"/>
    <path d="M128 840H1482"/>
    <path d="M302 116V904"/>
    <path d="M580 116V904"/>
    <path d="M858 116V904"/>
    <path d="M1136 116V904"/>
  </g>
  <g stroke="#E1E0CC">
    <rect x="214" y="278" width="244" height="444" rx="26" stroke-width="2"/>
    <rect x="676" y="198" width="274" height="524" rx="28" stroke-width="2"/>
    <rect x="1092" y="144" width="274" height="578" rx="30" stroke-width="2"/>
  </g>
  <g fill="#DEDBC8">
    <rect x="266" y="342" width="140" height="12" rx="6"/>
    <rect x="266" y="390" width="112" height="10" rx="5" opacity="0.65"/>
    <rect x="746" y="280" width="134" height="12" rx="6"/>
    <rect x="746" y="328" width="152" height="10" rx="5" opacity="0.65"/>
    <rect x="1162" y="232" width="134" height="12" rx="6"/>
    <rect x="1162" y="280" width="168" height="10" rx="5" opacity="0.65"/>
  </g>
</svg>
