<svg width="1600" height="1000" viewBox="0 0 1600 1000" fill="none" xmlns="http://www.w3.org/2000/svg">
  <defs>
    <linearGradient id="bg" x1="178" y1="120" x2="1420" y2="876" gradientUnits="userSpaceOnUse">
      <stop stop-color="#171511"/>
      <stop offset="1" stop-color="#040404"/>
    </linearGradient>
    <radialGradient id="halo" cx="0" cy="0" r="1" gradientUnits="userSpaceOnUse" gradientTransform="translate(868 468) rotate(90) scale(292 292)">
      <stop stop-color="#EDE4CD" stop-opacity="0.78"/>
      <stop offset="1" stop-color="#EDE4CD" stop-opacity="0"/>
    </radialGradient>
  </defs>
  <rect width="1600" height="1000" fill="url(#bg)"/>
  <circle cx="868" cy="468" r="284" fill="url(#halo)"/>
  <g opacity="0.26" stroke="#605A4D">
    <path d="M90 770C376 690 592 636 852 642C1118 648 1292 730 1524 660"/>
    <path d="M98 842C406 770 608 728 836 728C1098 728 1272 788 1490 740"/>
  </g>
  <g stroke="#E1E0CC">
    <circle cx="868" cy="468" r="204" stroke-width="2"/>
    <ellipse cx="868" cy="468" rx="204" ry="78" stroke-width="1.3"/>
    <ellipse cx="868" cy="468" rx="204" ry="146" stroke-width="1.1"/>
    <ellipse cx="868" cy="468" rx="84" ry="204" stroke-width="1.1"/>
    <ellipse cx="868" cy="468" rx="142" ry="204" stroke-width="1.1"/>
    <path d="M664 468H1072"/>
  </g>
  <g fill="#DEDBC8">
    <circle cx="744" cy="388" r="7"/>
    <circle cx="938" cy="328" r="7"/>
    <circle cx="986" cy="520" r="6"/>
    <circle cx="808" cy="582" r="6"/>
  </g>
  <g stroke="#C5BDA6" stroke-width="2">
    <path d="M744 388L938 328"/>
    <path d="M938 328L986 520"/>
    <path d="M744 388L808 582"/>
    <path d="M808 582L986 520"/>
  </g>
  <g fill="#E1E0CC">
    <rect x="186" y="240" width="164" height="14" rx="7"/>
    <rect x="186" y="276" width="232" height="10" rx="5" opacity="0.72"/>
    <rect x="1194" y="668" width="176" height="14" rx="7"/>
    <rect x="1194" y="704" width="208" height="10" rx="5" opacity="0.72"/>
  </g>
</svg>
