<svg width="1600" height="1000" viewBox="0 0 1600 1000" fill="none" xmlns="http://www.w3.org/2000/svg">
  <defs>
    <linearGradient id="bg" x1="120" y1="100" x2="1460" y2="920" gradientUnits="userSpaceOnUse">
      <stop stop-color="#151310"/>
      <stop offset="1" stop-color="#050505"/>
    </linearGradient>
    <linearGradient id="ribbon" x1="262" y1="712" x2="1322" y2="298" gradientUnits="userSpaceOnUse">
      <stop stop-color="#8F866F" stop-opacity="0"/>
      <stop offset="0.5" stop-color="#EEE5CF"/>
      <stop offset="1" stop-color="#8F866F" stop-opacity="0"/>
    </linearGradient>
  </defs>
  <rect width="1600" height="1000" fill="url(#bg)"/>
  <g opacity="0.28" stroke="#5F594C">
    <path d="M144 196H1464"/>
    <path d="M144 356H1464"/>
    <path d="M144 516H1464"/>
    <path d="M144 676H1464"/>
    <path d="M144 836H1464"/>
    <path d="M264 116V884"/>
    <path d="M504 116V884"/>
    <path d="M744 116V884"/>
    <path d="M984 116V884"/>
    <path d="M1224 116V884"/>
  </g>
  <path d="M248 714C450 694 580 566 734 514C894 458 1038 470 1334 286" stroke="url(#ribbon)" stroke-width="38" stroke-linecap="round"/>
  <path d="M246 714C450 692 580 566 734 514C894 458 1040 470 1338 286" stroke="#E1E0CC" stroke-width="3" stroke-linecap="round"/>
  <g stroke="#E1E0CC" stroke-width="2">
    <rect x="264" y="616" width="178" height="118" rx="18"/>
    <rect x="600" y="458" width="198" height="130" rx="18"/>
    <rect x="978" y="276" width="248" height="152" rx="22"/>
  </g>
  <g fill="#DEDBC8">
    <rect x="304" y="650" width="94" height="10" rx="5"/>
    <rect x="304" y="684" width="116" height="10" rx="5" opacity="0.7"/>
    <rect x="646" y="500" width="104" height="10" rx="5"/>
    <rect x="646" y="534" width="120" height="10" rx="5" opacity="0.7"/>
    <rect x="1032" y="326" width="128" height="12" rx="6"/>
    <rect x="1032" y="366" width="154" height="10" rx="5" opacity="0.7"/>
  </g>
</svg>
