<svg width="1600" height="1000" viewBox="0 0 1600 1000" fill="none" xmlns="http://www.w3.org/2000/svg">
  <defs>
    <linearGradient id="bg" x1="146" y1="104" x2="1456" y2="924" gradientUnits="userSpaceOnUse">
      <stop stop-color="#151310"/>
      <stop offset="1" stop-color="#050505"/>
    </linearGradient>
    <linearGradient id="beam" x1="487" y1="760" x2="1162" y2="240" gradientUnits="userSpaceOnUse">
      <stop stop-color="#CFC7B1" stop-opacity="0"/>
      <stop offset="0.48" stop-color="#EDE6D1" stop-opacity="0.95"/>
      <stop offset="1" stop-color="#CFC7B1" stop-opacity="0"/>
    </linearGradient>
    <filter id="blur" x="-20%" y="-20%" width="140%" height="140%">
      <feGaussianBlur stdDeviation="16"/>
    </filter>
  </defs>
  <rect width="1600" height="1000" fill="url(#bg)"/>
  <g opacity="0.22" stroke="#5B554A">
    <path d="M160 180H1440"/>
    <path d="M160 320H1440"/>
    <path d="M160 460H1440"/>
    <path d="M160 600H1440"/>
    <path d="M160 740H1440"/>
    <path d="M160 880H1440"/>
    <path d="M240 120V900"/>
    <path d="M440 120V900"/>
    <path d="M640 120V900"/>
    <path d="M840 120V900"/>
    <path d="M1040 120V900"/>
    <path d="M1240 120V900"/>
  </g>
  <path d="M468 740C640 660 776 538 884 426C984 322 1110 278 1246 256" stroke="url(#beam)" stroke-width="28" stroke-linecap="round" filter="url(#blur)"/>
  <path d="M472 740C648 660 784 536 890 424C996 314 1116 272 1248 250" stroke="#E1E0CC" stroke-width="4" stroke-linecap="round"/>
  <g stroke="#E1E0CC" stroke-width="2">
    <rect x="308" y="536" width="236" height="168" rx="18"/>
    <rect x="624" y="394" width="236" height="168" rx="18"/>
    <rect x="944" y="236" width="236" height="168" rx="18"/>
  </g>
  <g fill="#DEDBC8">
    <rect x="356" y="586" width="140" height="12" rx="6"/>
    <rect x="356" y="624" width="94" height="10" rx="5" opacity="0.75"/>
    <rect x="672" y="444" width="140" height="12" rx="6"/>
    <rect x="672" y="482" width="116" height="10" rx="5" opacity="0.75"/>
    <rect x="992" y="286" width="140" height="12" rx="6"/>
    <rect x="992" y="324" width="102" height="10" rx="5" opacity="0.75"/>
  </g>
  <g stroke="#B9B099" stroke-opacity="0.7">
    <circle cx="1272" cy="208" r="34"/>
    <path d="M1272 174V242"/>
    <path d="M1238 208H1306"/>
  </g>
</svg>
