<svg width="1600" height="1000" viewBox="0 0 1600 1000" fill="none" xmlns="http://www.w3.org/2000/svg">
  <defs>
    <linearGradient id="bg" x1="128" y1="80" x2="1450" y2="932" gradientUnits="userSpaceOnUse">
      <stop stop-color="#14120E"/>
      <stop offset="1" stop-color="#050505"/>
    </linearGradient>
    <linearGradient id="line" x1="238" y1="768" x2="1340" y2="276" gradientUnits="userSpaceOnUse">
      <stop stop-color="#7D7564" stop-opacity="0.15"/>
      <stop offset="0.5" stop-color="#F0E8D3"/>
      <stop offset="1" stop-color="#A79F8A"/>
    </linearGradient>
  </defs>
  <rect width="1600" height="1000" fill="url(#bg)"/>
  <g opacity="0.16" stroke="#605A4E">
    <path d="M156 820H1450"/>
    <path d="M156 660H1450"/>
    <path d="M156 500H1450"/>
    <path d="M156 340H1450"/>
    <path d="M156 180H1450"/>
  </g>
  <path d="M236 760C362 740 446 636 540 612C648 584 760 654 870 590C1002 514 1082 352 1338 264" stroke="url(#line)" stroke-width="8" stroke-linecap="round"/>
  <g fill="#DEDBC8">
    <circle cx="236" cy="760" r="12"/>
    <circle cx="540" cy="612" r="12"/>
    <circle cx="870" cy="590" r="12"/>
    <circle cx="1338" cy="264" r="14"/>
  </g>
  <g fill="#E1E0CC">
    <rect x="1120" y="198" width="168" height="14" rx="7"/>
    <rect x="1120" y="236" width="204" height="10" rx="5" opacity="0.68"/>
  </g>
</svg>
