<svg width="900" height="620" viewBox="0 0 900 620" fill="none" xmlns="http://www.w3.org/2000/svg">
  <rect width="900" height="620" rx="32" fill="#0F2F4D"/>
  <rect x="54" y="54" width="792" height="512" rx="28" fill="#163D65"/>
  <rect x="98" y="106" width="262" height="378" rx="24" fill="#F8F1E4"/>
  <rect x="130" y="144" width="198" height="26" rx="13" fill="#123453"/>
  <rect x="130" y="192" width="162" height="16" rx="8" fill="#9CB9CF"/>
  <rect x="130" y="222" width="178" height="16" rx="8" fill="#9CB9CF"/>
  <rect x="130" y="266" width="198" height="74" rx="18" fill="#E6B35B"/>
  <rect x="130" y="360" width="92" height="92" rx="18" fill="#DCECF7"/>
  <rect x="236" y="360" width="92" height="92" rx="18" fill="#123453"/>
  <circle cx="542" cy="234" r="104" fill="#F4EDE1"/>
  <circle cx="510" cy="208" r="34" fill="#E6B35B"/>
  <path d="M474 318C474 274.922 508.922 240 552 240C595.078 240 630 274.922 630 318V342H474V318Z" fill="#E6B35B"/>
  <path d="M498 342H606V408C606 421.255 595.255 432 582 432H522C508.745 432 498 421.255 498 408V342Z" fill="#F8F1E4"/>
  <rect x="644" y="150" width="138" height="44" rx="22" fill="#E6B35B"/>
  <rect x="666" y="164" width="94" height="16" rx="8" fill="#123453"/>
  <rect x="644" y="226" width="140" height="110" rx="24" fill="#F8F1E4"/>
  <rect x="668" y="252" width="92" height="16" rx="8" fill="#123453"/>
  <rect x="668" y="282" width="68" height="14" rx="7" fill="#9CB9CF"/>
  <rect x="668" y="306" width="84" height="14" rx="7" fill="#9CB9CF"/>
  <rect x="452" y="470" width="332" height="54" rx="20" fill="#F8F1E4"/>
  <rect x="486" y="490" width="196" height="14" rx="7" fill="#123453"/>
  <circle cx="720" cy="96" r="28" fill="#DCECF7"/>
  <circle cx="142" cy="92" r="22" fill="#E6B35B"/>
</svg>
