<svg width="620" height="220" viewBox="0 0 620 220" fill="none" xmlns="http://www.w3.org/2000/svg">
  <rect width="620" height="220" rx="24" fill="#FFFFFF"/>
  <path d="M405 162C436 136 450 101 448 66C482 86 505 120 520 169C488 161 459 159 405 162Z" fill="#F0A11F"/>
  <path d="M348 152C372 136 387 114 390 84L430 108C425 132 406 155 378 173C366 169 358 162 348 152Z" fill="#173E74"/>
  <path d="M309 98L332 76H365L351 98H373L341 136L348 112H322L309 98Z" fill="#C72828"/>
  <path d="M425 66C437 51 448 43 459 40L452 54L466 55L447 66H425Z" fill="#F0A11F"/>
  <path d="M376 70C389 55 405 48 420 51C432 54 438 64 439 78C440 95 432 112 415 127L399 117C411 106 418 93 417 81C416 74 412 70 405 69C400 68 394 70 388 74L376 70Z" fill="#173E74"/>
  <circle cx="402" cy="53" r="12" fill="#173E74"/>
  <path d="M397 66H410V91H397V66Z" fill="#173E74"/>
  <path d="M387 88C398 83 407 83 419 88L430 113L418 118L408 100V128H395V102L388 119L375 113L387 88Z" fill="#173E74"/>
  <path d="M50 132H82V144H62V158H76V170H62V196H50V132Z" fill="#173E74"/>
  <path d="M88 132H120V144H100V156H118V168H100V184H122V196H88V132Z" fill="#173E74"/>
  <path d="M126 132H173V144H156V196H143V144H126V132Z" fill="#173E74"/>
  <path d="M178 132H228V144H210V196H197V144H178V132Z" fill="#173E74"/>
  <path d="M232 132H264V144H244V156H262V168H244V184H266V196H232V132Z" fill="#173E74"/>
  <path d="M272 132H285L301 162L317 132H330V196H318V156L303 183H299L284 156V196H272V132Z" fill="#173E74"/>
  <path d="M50 52H179V68H68V89H166V105H68V136H50V52Z" fill="#173E74"/>
  <path d="M190 52H208V85H242V52H260V136H242V101H208V136H190V52Z" fill="#173E74"/>
  <path d="M271 52H289V136H271V52Z" fill="#173E74"/>
  <path d="M28 154H334V159H28V154Z" fill="#C78F3B"/>
  <path d="M28 164H334V167H28V164Z" fill="#C78F3B"/>
  <text x="27" y="112" fill="#173E74" font-family="Georgia, 'Times New Roman', serif" font-size="63" font-weight="700" letter-spacing="1">FIRST STEP</text>
  <text x="58" y="148" fill="#B33A2E" font-family="Arial, Helvetica, sans-serif" font-size="24" font-weight="700" letter-spacing="1.2">HEALTHCARE ACADEMY</text>
</svg>
