<svg width="960" height="720" viewBox="0 0 960 720" fill="none" xmlns="http://www.w3.org/2000/svg">
  <rect width="960" height="720" rx="36" fill="#F4EDE1"/>
  <rect x="52" y="58" width="856" height="604" rx="28" fill="#FFF9F0"/>
  <circle cx="756" cy="148" r="88" fill="#E9C98F"/>
  <circle cx="196" cy="144" r="62" fill="#D8EAF6"/>
  <rect x="118" y="160" width="312" height="428" rx="26" fill="#123453"/>
  <rect x="152" y="198" width="244" height="28" rx="14" fill="#E8F3FA"/>
  <rect x="152" y="246" width="206" height="20" rx="10" fill="#7DA8C7"/>
  <rect x="152" y="286" width="228" height="20" rx="10" fill="#7DA8C7"/>
  <rect x="152" y="336" width="118" height="118" rx="18" fill="#E7B762"/>
  <rect x="286" y="336" width="110" height="118" rx="18" fill="#0E2842"/>
  <rect x="152" y="474" width="244" height="78" rx="18" fill="#F8E8C5"/>
  <rect x="492" y="166" width="286" height="372" rx="30" fill="#FFFFFF"/>
  <rect x="522" y="204" width="226" height="30" rx="15" fill="#123453"/>
  <rect x="522" y="256" width="186" height="16" rx="8" fill="#C8D9E6"/>
  <rect x="522" y="286" width="210" height="16" rx="8" fill="#C8D9E6"/>
  <rect x="522" y="330" width="226" height="82" rx="18" fill="#F4EDE1"/>
  <circle cx="572" cy="371" r="24" fill="#E7B762"/>
  <path d="M568 360H576V382H568V360Z" fill="#123453"/>
  <path d="M560 368H584V376H560V368Z" fill="#123453"/>
  <rect x="522" y="432" width="104" height="74" rx="16" fill="#D9EBF6"/>
  <rect x="644" y="432" width="104" height="74" rx="16" fill="#0F2B46"/>
  <rect x="434" y="534" width="344" height="70" rx="20" fill="#123453"/>
  <rect x="564" y="560" width="150" height="18" rx="9" fill="#EAF3F9"/>
  <circle cx="516" cy="569" r="22" fill="#E7B762"/>
  <path d="M512 557H520V581H512V557Z" fill="#123453"/>
  <path d="M504 565H528V573H504V565Z" fill="#123453"/>
  <path d="M820 604C820 646.422 785.422 681 743 681H194C151.578 681 117 646.422 117 604V602H820V604Z" fill="#E0B870"/>
  <rect x="676" y="90" width="152" height="44" rx="22" fill="#123453"/>
  <rect x="698" y="104" width="108" height="16" rx="8" fill="#F6E8C7"/>
</svg>
